<svg xmlns="http://www.w3.org/2000/svg" xmlns:xlink="http://www.w3.org/1999/xlink" width="1440" zoomAndPan="magnify" viewBox="0 0 1440 809.999993" height="809.999993" preserveAspectRatio="xMidYMid meet" version="1.0"><defs><clipPath id="id1"><path d="M 227 2.863281 L 1215 2.863281 L 1215 806.863281 L 227 806.863281 Z M 227 2.863281 " clip-rule="nonzero"/></clipPath></defs><path fill="rgb(32.939148%, 32.939148%, 32.939148%)" d="M 369.242188 729.464844 L 948.089844 729.464844 L 948.089844 150.890625 L 369.242188 150.890625 Z M 965.011719 763.300781 L 352.316406 763.300781 C 342.96875 763.300781 335.390625 755.730469 335.390625 746.382812 L 335.390625 133.972656 C 335.390625 124.625 342.96875 117.054688 352.316406 117.054688 L 965.011719 117.054688 C 974.363281 117.054688 981.9375 124.625 981.9375 133.972656 L 981.9375 746.382812 C 981.9375 755.730469 974.363281 763.300781 965.011719 763.300781 " fill-opacity="1" fill-rule="nonzero"/><g clip-path="url(#id1)"><path fill="rgb(100%, 8.628845%, 8.628845%)" d="M 229.214844 353.269531 C 230.34375 351.425781 232.039062 347.648438 234.613281 344.605469 C 243.84375 333.695312 243.835938 327.261719 232.464844 319.640625 C 225.550781 315.007812 226.453125 312.074219 231.941406 307.519531 C 234.265625 305.585938 236.304688 302.722656 237.28125 299.875 C 240.285156 291.171875 241.097656 290.5625 249.949219 294.011719 C 255.886719 281.664062 269.871094 282.460938 279.78125 276.226562 C 292.285156 268.359375 303.007812 274.070312 314.339844 279.78125 C 322.851562 284.078125 333.246094 285.050781 341.09375 290.132812 C 349.261719 295.421875 356.515625 294.320312 364.507812 292.351562 C 366.929688 291.746094 369.339844 290.640625 371.441406 289.28125 C 385.96875 279.890625 398.941406 282.503906 411.554688 293.417969 C 416.265625 297.484375 422.34375 299.953125 427.6875 303.320312 C 434.488281 307.613281 442.34375 310.96875 447.722656 316.632812 C 486.988281 357.984375 525.757812 399.796875 564.636719 441.515625 C 569.597656 446.839844 574.097656 452.589844 579.144531 457.824219 C 584.0625 462.917969 598.132812 460.617188 603.011719 455.5 C 824.980469 189.746094 1087.792969 32.675781 1092.929688 27.226562 C 1096.105469 23.855469 1103.648438 24.523438 1109.257812 23.570312 C 1111.667969 23.167969 1115.417969 24.214844 1116.410156 22.933594 C 1126.34375 10.097656 1141.265625 7.472656 1155.695312 2.863281 C 1157.019531 4.671875 1158.730469 6.257812 1159.523438 8.230469 C 1163.308594 17.695312 1170.101562 22.632812 1180.230469 24.15625 C 1183.902344 24.714844 1187.480469 27.558594 1190.542969 30.042969 C 1195.292969 33.90625 1199.648438 38.265625 1203.992188 42.582031 C 1205.53125 44.101562 1207.214844 45.925781 1207.773438 47.914062 C 1210.261719 56.660156 1212.617188 65.453125 1214.355469 74.363281 C 1214.613281 75.683594 1211.394531 77.765625 1209.675781 79.359375 C 1207.652344 81.214844 1203.550781 83.175781 1203.738281 84.671875 C 1205.324219 97.328125 1196.808594 104.636719 1189.582031 112.441406 C 1171.558594 131.921875 823.121094 506.050781 701.722656 734.050781 C 690.074219 754.308594 690.480469 765.003906 674.105469 773.003906 C 671.398438 774.332031 669.121094 776.921875 667.191406 779.355469 C 660.769531 787.445312 654.070312 793.855469 642.628906 795.292969 C 635.644531 796.164062 629.441406 802.21875 622.515625 805.054688 C 619.078125 806.460938 614.519531 806.890625 610.96875 805.917969 C 601.671875 803.371094 592.539062 800.105469 583.554688 796.585938 C 572.445312 792.230469 560.460938 788.871094 550.941406 782.132812 C 544.519531 777.589844 541.933594 767.792969 537.167969 760.652344 C 534.765625 757.058594 531.332031 754.167969 526.679688 749.125 C 419.640625 557.171875 262.074219 388.613281 259.421875 385.9375 C 257.703125 384.203125 242.226562 369.789062 240.695312 367.964844 C 237.234375 363.839844 234.046875 359.496094 229.214844 353.269531 " fill-opacity="1" fill-rule="nonzero"/></g></svg>