<svg xmlns="http://www.w3.org/2000/svg" xmlns:xlink="http://www.w3.org/1999/xlink" width="1440" zoomAndPan="magnify" viewBox="0 0 1440 809.999993" height="809.999993" preserveAspectRatio="xMidYMid meet" version="1.0"><path fill="rgb(54.899597%, 54.899597%, 54.899597%)" d="M 366.699219 732.023438 L 949.496094 732.023438 L 949.496094 149.132812 L 366.699219 149.132812 Z M 966.539062 766.113281 L 349.660156 766.113281 C 340.246094 766.113281 332.617188 758.484375 332.617188 749.070312 L 332.617188 132.089844 C 332.617188 122.671875 340.246094 115.042969 349.660156 115.042969 L 966.539062 115.042969 C 975.953125 115.042969 983.578125 122.671875 983.578125 132.089844 L 983.578125 749.070312 C 983.578125 758.484375 975.953125 766.113281 966.539062 766.113281 " fill-opacity="1" fill-rule="nonzero"/><path fill="rgb(32.939148%, 32.939148%, 32.939148%)" d="M 225.714844 353.023438 C 226.851562 351.164062 228.558594 347.359375 231.152344 344.292969 C 240.445312 333.300781 240.4375 326.820312 228.988281 319.140625 C 222.023438 314.476562 222.933594 311.519531 228.457031 306.929688 C 230.796875 304.980469 232.851562 302.09375 233.835938 299.230469 C 236.859375 290.460938 237.679688 289.84375 246.589844 293.320312 C 252.570312 280.882812 266.648438 281.6875 276.625 275.40625 C 289.214844 267.480469 300.011719 273.230469 311.417969 278.984375 C 319.988281 283.3125 330.457031 284.292969 338.359375 289.414062 C 346.578125 294.742188 353.886719 293.632812 361.933594 291.648438 C 364.371094 291.039062 366.796875 289.925781 368.914062 288.558594 C 383.539062 279.097656 396.601562 281.730469 409.296875 292.722656 C 414.039062 296.820312 420.160156 299.304688 425.542969 302.703125 C 432.390625 307.027344 440.296875 310.40625 445.714844 316.113281 C 485.25 357.769531 524.285156 399.898438 563.429688 441.925781 C 568.421875 447.289062 572.953125 453.082031 578.035156 458.359375 C 582.984375 463.488281 597.152344 461.171875 602.0625 456.015625 C 825.546875 188.277344 1090.15625 30.035156 1095.328125 24.542969 C 1098.523438 21.148438 1106.121094 21.824219 1111.765625 20.863281 C 1114.195312 20.457031 1117.96875 21.511719 1118.964844 20.21875 C 1128.96875 7.285156 1143.996094 4.644531 1158.519531 0 C 1159.855469 1.820312 1161.578125 3.421875 1162.375 5.40625 C 1166.183594 14.941406 1173.027344 19.917969 1183.222656 21.449219 C 1186.921875 22.011719 1190.523438 24.878906 1193.605469 27.382812 C 1198.390625 31.273438 1202.773438 35.664062 1207.144531 40.015625 C 1208.695312 41.546875 1210.394531 43.386719 1210.957031 45.386719 C 1213.460938 54.195312 1215.832031 63.058594 1217.582031 72.03125 C 1217.84375 73.363281 1214.601562 75.460938 1212.871094 77.066406 C 1210.832031 78.9375 1206.703125 80.910156 1206.894531 82.417969 C 1208.488281 95.171875 1199.914062 102.53125 1192.636719 110.398438 C 1174.492188 130.019531 823.675781 506.941406 701.449219 736.644531 C 689.71875 757.054688 690.128906 767.828125 673.644531 775.890625 C 670.917969 777.226562 668.625 779.835938 666.679688 782.289062 C 660.21875 790.4375 653.472656 796.894531 641.953125 798.34375 C 634.917969 799.222656 628.671875 805.324219 621.703125 808.179688 C 618.238281 809.59375 613.648438 810.027344 610.078125 809.046875 C 600.714844 806.480469 591.519531 803.191406 582.472656 799.648438 C 571.289062 795.261719 559.222656 791.875 549.640625 785.082031 C 543.171875 780.507812 540.570312 770.640625 535.769531 763.445312 C 533.351562 759.824219 529.894531 756.910156 525.210938 751.832031 C 417.441406 558.445312 258.800781 388.628906 256.128906 385.933594 C 254.398438 384.183594 238.816406 369.664062 237.273438 367.828125 C 233.789062 363.667969 230.578125 359.296875 225.714844 353.023438 " fill-opacity="1" fill-rule="nonzero"/></svg>