<svg xmlns="http://www.w3.org/2000/svg" xmlns:xlink="http://www.w3.org/1999/xlink" width="1440" zoomAndPan="magnify" viewBox="0 0 1440 809.999993" height="809.999993" preserveAspectRatio="xMidYMid meet" version="1.0"><defs><filter x="0%" y="0%" width="100%" xlink:type="simple" xlink:actuate="onLoad" height="100%" id="id1" xlink:show="other"><feColorMatrix values="0 0 0 0 1 0 0 0 0 1 0 0 0 0 1 0 0 0 1 0" color-interpolation-filters="sRGB"/></filter><mask id="id2"><g filter="url(#id1)"><rect x="-144" width="1728" fill="rgb(0%, 0%, 0%)" y="-80.999999" height="971.999992" fill-opacity="0.3882"/></g></mask><clipPath id="id3"><path d="M 0 0 L 1440 0 L 1440 810 L 0 810 Z M 0 0 " clip-rule="nonzero"/></clipPath><clipPath id="id4"><rect x="0" width="1440" y="0" height="810"/></clipPath><clipPath id="id5"><path d="M 0 278 L 249 278 L 249 387 L 0 387 Z M 0 278 " clip-rule="nonzero"/></clipPath><clipPath id="id6"><path d="M 252.1875 381.0625 L 203.300781 452.863281 L -35.289062 290.414062 L 13.597656 218.613281 Z M 252.1875 381.0625 " clip-rule="nonzero"/></clipPath><clipPath id="id7"><path d="M 252.1875 381.0625 L 203.300781 452.863281 L -35.289062 290.414062 L 13.597656 218.613281 Z M 252.1875 381.0625 " clip-rule="nonzero"/></clipPath><clipPath id="id8"><path d="M 345 394 L 365.148438 394 L 365.148438 427 L 345 427 Z M 345 394 " clip-rule="nonzero"/></clipPath><clipPath id="id9"><path d="M 332 406 L 345.746094 406 L 345.746094 434.183594 L 332 434.183594 Z M 332 406 " clip-rule="nonzero"/></clipPath><clipPath id="id10"><path d="M 171 313 L 365.148438 313 L 365.148438 414 L 171 414 Z M 171 313 " clip-rule="nonzero"/></clipPath><clipPath id="id11"><path d="M 295.304688 392.4375 L 332.382812 392.4375 L 332.382812 434.183594 L 295.304688 434.183594 Z M 295.304688 392.4375 " clip-rule="nonzero"/></clipPath><mask id="id12"><g filter="url(#id1)"><rect x="-144" width="1728" fill="rgb(0%, 0%, 0%)" y="-80.999999" height="971.999992" fill-opacity="0.4196"/></g></mask><clipPath id="id13"><path d="M 0 0.359375 L 163.679688 0.359375 L 163.679688 254.519531 L 0 254.519531 Z M 0 0.359375 " clip-rule="nonzero"/></clipPath><clipPath id="id14"><rect x="0" width="164" y="0" height="255"/></clipPath><mask id="id15"><g filter="url(#id1)"><rect x="-144" width="1728" fill="rgb(0%, 0%, 0%)" y="-80.999999" height="971.999992" fill-opacity="0.1765"/></g></mask><clipPath id="id16"><path d="M 16 11 L 324 11 L 324 486 L 16 486 Z M 16 11 " clip-rule="nonzero"/></clipPath><clipPath id="id17"><path d="M 487.960938 470.175781 L 32.414062 503.308594 L -1.914062 31.304688 L 453.632812 -1.828125 Z M 487.960938 470.175781 " clip-rule="nonzero"/></clipPath><clipPath id="id18"><path d="M 487.960938 470.175781 L 32.414062 503.308594 L -1.914062 31.304688 L 453.632812 -1.828125 Z M 487.960938 470.175781 " clip-rule="nonzero"/></clipPath><clipPath id="id19"><rect x="0" width="324" y="0" height="503"/></clipPath><clipPath id="id20"><path d="M 1396 226 L 1411 226 L 1411 280 L 1396 280 Z M 1396 226 " clip-rule="nonzero"/></clipPath><clipPath id="id21"><path d="M 1197.738281 132.230469 L 1440.273438 245.664062 L 1303.011719 539.152344 L 1060.476562 425.71875 Z M 1197.738281 132.230469 " clip-rule="nonzero"/></clipPath><clipPath id="id22"><path d="M 1197.738281 132.230469 L 1440.273438 245.664062 L 1303.011719 539.152344 L 1060.476562 425.71875 Z M 1197.738281 132.230469 " clip-rule="nonzero"/></clipPath><clipPath id="id23"><path d="M 1327 245 L 1406 245 L 1406 280 L 1327 280 Z M 1327 245 " clip-rule="nonzero"/></clipPath><clipPath id="id24"><path d="M 1197.738281 132.230469 L 1440.273438 245.664062 L 1303.011719 539.152344 L 1060.476562 425.71875 Z M 1197.738281 132.230469 " clip-rule="nonzero"/></clipPath><clipPath id="id25"><path d="M 1197.738281 132.230469 L 1440.273438 245.664062 L 1303.011719 539.152344 L 1060.476562 425.71875 Z M 1197.738281 132.230469 " clip-rule="nonzero"/></clipPath><clipPath id="id26"><path d="M 1324 254 L 1400 254 L 1400 328 L 1324 328 Z M 1324 254 " clip-rule="nonzero"/></clipPath><clipPath id="id27"><path d="M 1197.738281 132.230469 L 1440.273438 245.664062 L 1303.011719 539.152344 L 1060.476562 425.71875 Z M 1197.738281 132.230469 " clip-rule="nonzero"/></clipPath><clipPath id="id28"><path d="M 1197.738281 132.230469 L 1440.273438 245.664062 L 1303.011719 539.152344 L 1060.476562 425.71875 Z M 1197.738281 132.230469 " clip-rule="nonzero"/></clipPath><clipPath id="id29"><path d="M 1325 287 L 1389 287 L 1389 396 L 1325 396 Z M 1325 287 " clip-rule="nonzero"/></clipPath><clipPath id="id30"><path d="M 1197.738281 132.230469 L 1440.273438 245.664062 L 1303.011719 539.152344 L 1060.476562 425.71875 Z M 1197.738281 132.230469 " clip-rule="nonzero"/></clipPath><clipPath id="id31"><path d="M 1197.738281 132.230469 L 1440.273438 245.664062 L 1303.011719 539.152344 L 1060.476562 425.71875 Z M 1197.738281 132.230469 " clip-rule="nonzero"/></clipPath><clipPath id="id32"><path d="M 1329.035156 285.632812 L 1404.777344 321.054688 L 1364.730469 406.6875 L 1288.984375 371.261719 Z M 1329.035156 285.632812 " clip-rule="nonzero"/></clipPath><clipPath id="id33"><path d="M 1329.035156 285.632812 L 1404.554688 320.953125 L 1364.507812 406.582031 L 1288.984375 371.261719 Z M 1329.035156 285.632812 " clip-rule="nonzero"/></clipPath><clipPath id="id34"><path d="M 1331 287 L 1396 287 L 1396 328 L 1331 328 Z M 1331 287 " clip-rule="nonzero"/></clipPath><clipPath id="id35"><path d="M 1197.738281 132.230469 L 1440.273438 245.664062 L 1303.011719 539.152344 L 1060.476562 425.71875 Z M 1197.738281 132.230469 " clip-rule="nonzero"/></clipPath><clipPath id="id36"><path d="M 1197.738281 132.230469 L 1440.273438 245.664062 L 1303.011719 539.152344 L 1060.476562 425.71875 Z M 1197.738281 132.230469 " clip-rule="nonzero"/></clipPath><clipPath id="id37"><path d="M 1319 317 L 1346 317 L 1346 396 L 1319 396 Z M 1319 317 " clip-rule="nonzero"/></clipPath><clipPath id="id38"><path d="M 1197.738281 132.230469 L 1440.273438 245.664062 L 1303.011719 539.152344 L 1060.476562 425.71875 Z M 1197.738281 132.230469 " clip-rule="nonzero"/></clipPath><clipPath id="id39"><path d="M 1197.738281 132.230469 L 1440.273438 245.664062 L 1303.011719 539.152344 L 1060.476562 425.71875 Z M 1197.738281 132.230469 " clip-rule="nonzero"/></clipPath><clipPath id="id40"><path d="M 1309 317 L 1335 317 L 1335 413 L 1309 413 Z M 1309 317 " clip-rule="nonzero"/></clipPath><clipPath id="id41"><path d="M 1197.738281 132.230469 L 1440.273438 245.664062 L 1303.011719 539.152344 L 1060.476562 425.71875 Z M 1197.738281 132.230469 " clip-rule="nonzero"/></clipPath><clipPath id="id42"><path d="M 1197.738281 132.230469 L 1440.273438 245.664062 L 1303.011719 539.152344 L 1060.476562 425.71875 Z M 1197.738281 132.230469 " clip-rule="nonzero"/></clipPath><clipPath id="id43"><path d="M 1262 410 L 1331 410 L 1331 443 L 1262 443 Z M 1262 410 " clip-rule="nonzero"/></clipPath><clipPath id="id44"><path d="M 1197.738281 132.230469 L 1440.273438 245.664062 L 1303.011719 539.152344 L 1060.476562 425.71875 Z M 1197.738281 132.230469 " clip-rule="nonzero"/></clipPath><clipPath id="id45"><path d="M 1197.738281 132.230469 L 1440.273438 245.664062 L 1303.011719 539.152344 L 1060.476562 425.71875 Z M 1197.738281 132.230469 " clip-rule="nonzero"/></clipPath><clipPath id="id46"><path d="M 1262 353 L 1280 353 L 1280 443 L 1262 443 Z M 1262 353 " clip-rule="nonzero"/></clipPath><clipPath id="id47"><path d="M 1197.738281 132.230469 L 1440.273438 245.664062 L 1303.011719 539.152344 L 1060.476562 425.71875 Z M 1197.738281 132.230469 " clip-rule="nonzero"/></clipPath><clipPath id="id48"><path d="M 1197.738281 132.230469 L 1440.273438 245.664062 L 1303.011719 539.152344 L 1060.476562 425.71875 Z M 1197.738281 132.230469 " clip-rule="nonzero"/></clipPath><clipPath id="id49"><path d="M 1183 353 L 1270 353 L 1270 483 L 1183 483 Z M 1183 353 " clip-rule="nonzero"/></clipPath><clipPath id="id50"><path d="M 1197.738281 132.230469 L 1440.273438 245.664062 L 1303.011719 539.152344 L 1060.476562 425.71875 Z M 1197.738281 132.230469 " clip-rule="nonzero"/></clipPath><clipPath id="id51"><path d="M 1197.738281 132.230469 L 1440.273438 245.664062 L 1303.011719 539.152344 L 1060.476562 425.71875 Z M 1197.738281 132.230469 " clip-rule="nonzero"/></clipPath><clipPath id="id52"><path d="M 1163 346 L 1227 346 L 1227 484 L 1163 484 Z M 1163 346 " clip-rule="nonzero"/></clipPath><clipPath id="id53"><path d="M 1197.738281 132.230469 L 1440.273438 245.664062 L 1303.011719 539.152344 L 1060.476562 425.71875 Z M 1197.738281 132.230469 " clip-rule="nonzero"/></clipPath><clipPath id="id54"><path d="M 1197.738281 132.230469 L 1440.273438 245.664062 L 1303.011719 539.152344 L 1060.476562 425.71875 Z M 1197.738281 132.230469 " clip-rule="nonzero"/></clipPath><clipPath id="id55"><path d="M 1200.476562 335.585938 L 1245.101562 356.457031 L 1185.300781 484.3125 L 1140.675781 463.441406 Z M 1200.476562 335.585938 " clip-rule="nonzero"/></clipPath><clipPath id="id56"><path d="M 1200.476562 335.585938 L 1245.101562 356.457031 L 1185.390625 484.125 L 1140.765625 463.253906 Z M 1200.476562 335.585938 " clip-rule="nonzero"/></clipPath><clipPath id="id57"><path d="M 1149 346 L 1225 346 L 1225 418 L 1149 418 Z M 1149 346 " clip-rule="nonzero"/></clipPath><clipPath id="id58"><path d="M 1197.738281 132.230469 L 1440.273438 245.664062 L 1303.011719 539.152344 L 1060.476562 425.71875 Z M 1197.738281 132.230469 " clip-rule="nonzero"/></clipPath><clipPath id="id59"><path d="M 1197.738281 132.230469 L 1440.273438 245.664062 L 1303.011719 539.152344 L 1060.476562 425.71875 Z M 1197.738281 132.230469 " clip-rule="nonzero"/></clipPath><clipPath id="id60"><path d="M 1129 320 L 1184 320 L 1184 418 L 1129 418 Z M 1129 320 " clip-rule="nonzero"/></clipPath><clipPath id="id61"><path d="M 1197.738281 132.230469 L 1440.273438 245.664062 L 1303.011719 539.152344 L 1060.476562 425.71875 Z M 1197.738281 132.230469 " clip-rule="nonzero"/></clipPath><clipPath id="id62"><path d="M 1197.738281 132.230469 L 1440.273438 245.664062 L 1303.011719 539.152344 L 1060.476562 425.71875 Z M 1197.738281 132.230469 " clip-rule="nonzero"/></clipPath><clipPath id="id63"><path d="M 1128 319 L 1184 319 L 1184 342 L 1128 342 Z M 1128 319 " clip-rule="nonzero"/></clipPath><clipPath id="id64"><path d="M 1197.738281 132.230469 L 1440.273438 245.664062 L 1303.011719 539.152344 L 1060.476562 425.71875 Z M 1197.738281 132.230469 " clip-rule="nonzero"/></clipPath><clipPath id="id65"><path d="M 1197.738281 132.230469 L 1440.273438 245.664062 L 1303.011719 539.152344 L 1060.476562 425.71875 Z M 1197.738281 132.230469 " clip-rule="nonzero"/></clipPath><clipPath id="id66"><path d="M 1120 284 L 1134 284 L 1134 342 L 1120 342 Z M 1120 284 " clip-rule="nonzero"/></clipPath><clipPath id="id67"><path d="M 1197.738281 132.230469 L 1440.273438 245.664062 L 1303.011719 539.152344 L 1060.476562 425.71875 Z M 1197.738281 132.230469 " clip-rule="nonzero"/></clipPath><clipPath id="id68"><path d="M 1197.738281 132.230469 L 1440.273438 245.664062 L 1303.011719 539.152344 L 1060.476562 425.71875 Z M 1197.738281 132.230469 " clip-rule="nonzero"/></clipPath><clipPath id="id69"><path d="M 1127 261 L 1221 261 L 1221 287 L 1127 287 Z M 1127 261 " clip-rule="nonzero"/></clipPath><clipPath id="id70"><path d="M 1197.738281 132.230469 L 1440.273438 245.664062 L 1303.011719 539.152344 L 1060.476562 425.71875 Z M 1197.738281 132.230469 " clip-rule="nonzero"/></clipPath><clipPath id="id71"><path d="M 1197.738281 132.230469 L 1440.273438 245.664062 L 1303.011719 539.152344 L 1060.476562 425.71875 Z M 1197.738281 132.230469 " clip-rule="nonzero"/></clipPath><clipPath id="id72"><path d="M 1183 246 L 1301 246 L 1301 484 L 1183 484 Z M 1183 246 " clip-rule="nonzero"/></clipPath><clipPath id="id73"><path d="M 1197.738281 132.230469 L 1440.273438 245.664062 L 1303.011719 539.152344 L 1060.476562 425.71875 Z M 1197.738281 132.230469 " clip-rule="nonzero"/></clipPath><clipPath id="id74"><path d="M 1197.738281 132.230469 L 1440.273438 245.664062 L 1303.011719 539.152344 L 1060.476562 425.71875 Z M 1197.738281 132.230469 " clip-rule="nonzero"/></clipPath><clipPath id="id75"><path d="M 1282.851562 239.015625 L 1301.054688 247.527344 L 1189.414062 486.234375 L 1171.210938 477.722656 Z M 1282.851562 239.015625 " clip-rule="nonzero"/></clipPath><clipPath id="id76"><path d="M 1282.851562 239.015625 L 1301.054688 247.527344 L 1189.5 486.046875 L 1171.296875 477.535156 Z M 1282.851562 239.015625 " clip-rule="nonzero"/></clipPath><clipPath id="id77"><path d="M 1145 204 L 1278 204 L 1278 248 L 1145 248 Z M 1145 204 " clip-rule="nonzero"/></clipPath><clipPath id="id78"><path d="M 1197.738281 132.230469 L 1440.273438 245.664062 L 1303.011719 539.152344 L 1060.476562 425.71875 Z M 1197.738281 132.230469 " clip-rule="nonzero"/></clipPath><clipPath id="id79"><path d="M 1197.738281 132.230469 L 1440.273438 245.664062 L 1303.011719 539.152344 L 1060.476562 425.71875 Z M 1197.738281 132.230469 " clip-rule="nonzero"/></clipPath><clipPath id="id80"><path d="M 1296 229 L 1299 229 L 1299 236 L 1296 236 Z M 1296 229 " clip-rule="nonzero"/></clipPath><clipPath id="id81"><path d="M 1197.738281 132.230469 L 1440.273438 245.664062 L 1303.011719 539.152344 L 1060.476562 425.71875 Z M 1197.738281 132.230469 " clip-rule="nonzero"/></clipPath><clipPath id="id82"><path d="M 1197.738281 132.230469 L 1440.273438 245.664062 L 1303.011719 539.152344 L 1060.476562 425.71875 Z M 1197.738281 132.230469 " clip-rule="nonzero"/></clipPath><clipPath id="id83"><path d="M 1217 168 L 1299 168 L 1299 232 L 1217 232 Z M 1217 168 " clip-rule="nonzero"/></clipPath><clipPath id="id84"><path d="M 1197.738281 132.230469 L 1440.273438 245.664062 L 1303.011719 539.152344 L 1060.476562 425.71875 Z M 1197.738281 132.230469 " clip-rule="nonzero"/></clipPath><clipPath id="id85"><path d="M 1197.738281 132.230469 L 1440.273438 245.664062 L 1303.011719 539.152344 L 1060.476562 425.71875 Z M 1197.738281 132.230469 " clip-rule="nonzero"/></clipPath><clipPath id="id86"><path d="M 1217 176 L 1278 176 L 1278 243 L 1217 243 Z M 1217 176 " clip-rule="nonzero"/></clipPath><clipPath id="id87"><path d="M 1197.738281 132.230469 L 1440.273438 245.664062 L 1303.011719 539.152344 L 1060.476562 425.71875 Z M 1197.738281 132.230469 " clip-rule="nonzero"/></clipPath><clipPath id="id88"><path d="M 1197.738281 132.230469 L 1440.273438 245.664062 L 1303.011719 539.152344 L 1060.476562 425.71875 Z M 1197.738281 132.230469 " clip-rule="nonzero"/></clipPath><clipPath id="id89"><path d="M 1145 244 L 1221 244 L 1221 264 L 1145 264 Z M 1145 244 " clip-rule="nonzero"/></clipPath><clipPath id="id90"><path d="M 1197.738281 132.230469 L 1440.273438 245.664062 L 1303.011719 539.152344 L 1060.476562 425.71875 Z M 1197.738281 132.230469 " clip-rule="nonzero"/></clipPath><clipPath id="id91"><path d="M 1197.738281 132.230469 L 1440.273438 245.664062 L 1303.011719 539.152344 L 1060.476562 425.71875 Z M 1197.738281 132.230469 " clip-rule="nonzero"/></clipPath><clipPath id="id92"><path d="M 1297 218 L 1399 218 L 1399 250 L 1297 250 Z M 1297 218 " clip-rule="nonzero"/></clipPath><clipPath id="id93"><path d="M 1197.738281 132.230469 L 1440.273438 245.664062 L 1303.011719 539.152344 L 1060.476562 425.71875 Z M 1197.738281 132.230469 " clip-rule="nonzero"/></clipPath><clipPath id="id94"><path d="M 1197.738281 132.230469 L 1440.273438 245.664062 L 1303.011719 539.152344 L 1060.476562 425.71875 Z M 1197.738281 132.230469 " clip-rule="nonzero"/></clipPath><clipPath id="id95"><path d="M 1296 229 L 1301 229 L 1301 250 L 1296 250 Z M 1296 229 " clip-rule="nonzero"/></clipPath><clipPath id="id96"><path d="M 1197.738281 132.230469 L 1440.273438 245.664062 L 1303.011719 539.152344 L 1060.476562 425.71875 Z M 1197.738281 132.230469 " clip-rule="nonzero"/></clipPath><clipPath id="id97"><path d="M 1197.738281 132.230469 L 1440.273438 245.664062 L 1303.011719 539.152344 L 1060.476562 425.71875 Z M 1197.738281 132.230469 " clip-rule="nonzero"/></clipPath><clipPath id="id98"><path d="M 1226 312 L 1246 312 L 1246 328 L 1226 328 Z M 1226 312 " clip-rule="nonzero"/></clipPath><clipPath id="id99"><path d="M 1197.738281 132.230469 L 1440.273438 245.664062 L 1303.011719 539.152344 L 1060.476562 425.71875 Z M 1197.738281 132.230469 " clip-rule="nonzero"/></clipPath><clipPath id="id100"><path d="M 1197.738281 132.230469 L 1440.273438 245.664062 L 1303.011719 539.152344 L 1060.476562 425.71875 Z M 1197.738281 132.230469 " clip-rule="nonzero"/></clipPath><clipPath id="id101"><path d="M 1201 280 L 1246 280 L 1246 307 L 1201 307 Z M 1201 280 " clip-rule="nonzero"/></clipPath><clipPath id="id102"><path d="M 1197.738281 132.230469 L 1440.273438 245.664062 L 1303.011719 539.152344 L 1060.476562 425.71875 Z M 1197.738281 132.230469 " clip-rule="nonzero"/></clipPath><clipPath id="id103"><path d="M 1197.738281 132.230469 L 1440.273438 245.664062 L 1303.011719 539.152344 L 1060.476562 425.71875 Z M 1197.738281 132.230469 " clip-rule="nonzero"/></clipPath><clipPath id="id104"><path d="M 1270 321 L 1297 321 L 1297 353 L 1270 353 Z M 1270 321 " clip-rule="nonzero"/></clipPath><clipPath id="id105"><path d="M 1197.738281 132.230469 L 1440.273438 245.664062 L 1303.011719 539.152344 L 1060.476562 425.71875 Z M 1197.738281 132.230469 " clip-rule="nonzero"/></clipPath><clipPath id="id106"><path d="M 1197.738281 132.230469 L 1440.273438 245.664062 L 1303.011719 539.152344 L 1060.476562 425.71875 Z M 1197.738281 132.230469 " clip-rule="nonzero"/></clipPath><clipPath id="id107"><path d="M 1298 299 L 1313 299 L 1313 317 L 1298 317 Z M 1298 299 " clip-rule="nonzero"/></clipPath><clipPath id="id108"><path d="M 1197.738281 132.230469 L 1440.273438 245.664062 L 1303.011719 539.152344 L 1060.476562 425.71875 Z M 1197.738281 132.230469 " clip-rule="nonzero"/></clipPath><clipPath id="id109"><path d="M 1197.738281 132.230469 L 1440.273438 245.664062 L 1303.011719 539.152344 L 1060.476562 425.71875 Z M 1197.738281 132.230469 " clip-rule="nonzero"/></clipPath><clipPath id="id110"><path d="M 1260 252 L 1278 252 L 1278 267 L 1260 267 Z M 1260 252 " clip-rule="nonzero"/></clipPath><clipPath id="id111"><path d="M 1197.738281 132.230469 L 1440.273438 245.664062 L 1303.011719 539.152344 L 1060.476562 425.71875 Z M 1197.738281 132.230469 " clip-rule="nonzero"/></clipPath><clipPath id="id112"><path d="M 1197.738281 132.230469 L 1440.273438 245.664062 L 1303.011719 539.152344 L 1060.476562 425.71875 Z M 1197.738281 132.230469 " clip-rule="nonzero"/></clipPath></defs><rect x="-144" width="1728" fill="rgb(100%, 100%, 100%)" y="-80.999999" height="971.999992" fill-opacity="1"/><rect x="-144" width="1728" fill="rgb(100%, 100%, 100%)" y="-80.999999" height="971.999992" fill-opacity="1"/><rect x="-144" width="1728" fill="rgb(100%, 100%, 100%)" y="-80.999999" height="971.999992" fill-opacity="1"/><g mask="url(#id2)"><g transform="matrix(1, 0, 0, 1, 0, 0.000000000000039746)"><g clip-path="url(#id4)"><g clip-path="url(#id3)"><rect x="-316.8" width="2073.6" fill="rgb(0%, 0%, 0%)" height="1166.39999" y="-178.199998" fill-opacity="1"/></g></g></g></g><g clip-path="url(#id5)"><g clip-path="url(#id6)"><g clip-path="url(#id7)"><path fill="rgb(100%, 100%, 100%)" d="M 248.453125 386.066406 C 229.066406 365.449219 202.472656 349.511719 173.351562 350.671875 C 159.460938 351.253906 146.476562 356.855469 135.496094 365.121094 C 130.839844 368.628906 120.976562 376.847656 126.496094 383.230469 C 132.792969 390.523438 141.84375 383.9375 139.960938 375.820312 C 138.082031 367.703125 128.007812 366.210938 121.4375 369.152344 C 115.289062 371.960938 107.160156 384.054688 99.898438 379.742188 C 93.957031 376.203125 91.402344 366.226562 88.867188 360.320312 C 85.5 351.867188 81.179688 343.929688 75.914062 336.511719 C 70.511719 329.339844 61.953125 321.761719 52.46875 321.964844 C 43.695312 322.203125 36.15625 331.636719 27.246094 326.515625 C 18.058594 321.238281 11.941406 309.484375 5.011719 301.738281 C -3.640625 292.070312 -15.433594 284.164062 -26.882812 278.273438 C -26.992188 278.199219 -27.113281 278.378906 -26.996094 278.441406 C -9.914062 287.660156 3.027344 300.195312 15.070312 315.128906 C 21.886719 323.582031 28.273438 331.585938 39.808594 327.320312 C 47.558594 324.464844 53.222656 321.011719 61.472656 325.175781 C 71.578125 330.308594 78.152344 340.855469 83.074219 350.605469 C 86.949219 358.28125 89.695312 366.480469 93.695312 374.101562 C 95.410156 377.367188 97.851562 380.796875 101.464844 381.945312 C 107.34375 383.832031 113.761719 376.046875 117.785156 373.03125 C 122.273438 369.667969 127.199219 367.988281 132.683594 369.816406 C 137.808594 371.554688 141.519531 379.066406 137.242188 383.605469 C 134.242188 386.808594 127.210938 383.664062 126.21875 380.105469 C 125.578125 377.796875 127.542969 375.164062 128.792969 373.410156 C 137.269531 361.414062 154.265625 354.480469 168.167969 352.316406 C 184.578125 349.726562 201.289062 354.320312 215.804688 361.703125 C 227.996094 368.058594 238.78125 376.257812 248.164062 386.304688 C 248.355469 386.4375 248.609375 386.242188 248.441406 386.078125 Z M 248.453125 386.066406 " fill-opacity="1" fill-rule="nonzero"/></g></g></g><path fill="rgb(85.099792%, 85.099792%, 85.099792%)" d="M 246.058594 339.738281 L 246 360.105469 C 246.011719 355.671875 243.082031 351.203125 237.171875 347.796875 C 225.671875 341.164062 207.042969 341.257812 195.777344 347.796875 C 190.058594 351.113281 187.179688 355.46875 187.167969 359.820312 L 187.222656 339.453125 C 187.234375 335.101562 190.117188 330.746094 195.835938 327.429688 C 207.101562 320.890625 225.730469 320.796875 237.230469 327.429688 C 243.140625 330.835938 246.070312 335.308594 246.058594 339.738281 " fill-opacity="1" fill-rule="nonzero"/><path fill="rgb(85.099792%, 85.099792%, 85.099792%)" d="M 262.019531 339.707031 L 261.960938 360.074219 C 261.945312 365.007812 259.535156 369.933594 254.679688 374.226562 L 254.734375 353.863281 C 259.59375 349.570312 262.003906 344.640625 262.019531 339.707031 " fill-opacity="1" fill-rule="nonzero"/><path fill="rgb(85.099792%, 85.099792%, 85.099792%)" d="M 171.144531 359.765625 L 171.203125 339.398438 C 171.183594 346.136719 175.640625 352.875 184.542969 358.003906 C 200.039062 366.941406 223.769531 368.136719 241.5625 361.503906 L 241.507812 381.871094 C 223.710938 388.503906 199.980469 387.304688 184.484375 378.375 C 175.582031 373.242188 171.125 366.503906 171.144531 359.765625 " fill-opacity="1" fill-rule="nonzero"/><path fill="rgb(85.099792%, 85.099792%, 85.099792%)" d="M 285.8125 387.015625 L 285.753906 407.382812 L 241.507812 381.871094 L 241.5625 361.503906 L 285.8125 387.015625 " fill-opacity="1" fill-rule="nonzero"/><path fill="rgb(85.099792%, 85.099792%, 85.099792%)" d="M 346.296875 383.886719 L 346.242188 404.25 L 326.5625 415.671875 L 326.621094 395.304688 L 346.296875 383.886719 " fill-opacity="1" fill-rule="nonzero"/><path fill="rgb(85.099792%, 85.099792%, 85.099792%)" d="M 276.035156 404.148438 L 275.976562 424.515625 L 266.074219 418.804688 L 266.132812 398.4375 L 276.035156 404.148438 " fill-opacity="1" fill-rule="nonzero"/><path fill="rgb(85.099792%, 85.099792%, 85.099792%)" d="M 295.714844 392.726562 L 295.65625 413.09375 L 275.976562 424.515625 L 276.035156 404.148438 L 295.714844 392.726562 " fill-opacity="1" fill-rule="nonzero"/><g clip-path="url(#id8)"><path fill="rgb(85.099792%, 85.099792%, 85.099792%)" d="M 365.148438 394.753906 L 365.089844 415.121094 L 345.410156 426.542969 L 345.46875 406.171875 L 365.148438 394.753906 " fill-opacity="1" fill-rule="nonzero"/></g><g clip-path="url(#id9)"><path fill="rgb(85.099792%, 85.099792%, 85.099792%)" d="M 345.46875 406.171875 L 345.410156 426.542969 L 332.238281 434.183594 L 332.296875 413.820312 L 345.46875 406.171875 " fill-opacity="1" fill-rule="nonzero"/></g><g clip-path="url(#id10)"><path fill="rgb(100%, 100%, 100%)" d="M 195.808594 351.46875 C 207.472656 358.191406 226.257812 358.191406 237.6875 351.558594 C 248.953125 345.019531 248.890625 334.152344 237.230469 327.429688 C 225.730469 320.796875 207.101562 320.890625 195.835938 327.429688 C 184.40625 334.058594 184.308594 344.835938 195.808594 351.46875 Z M 355.242188 389.042969 L 365.148438 394.753906 L 345.46875 406.171875 L 332.296875 413.820312 L 295.714844 392.726562 L 276.035156 404.148438 L 266.132812 398.4375 L 285.8125 387.015625 L 241.5625 361.503906 C 223.769531 368.136719 200.039062 366.941406 184.542969 358.003906 C 166.8125 347.78125 166.71875 331.207031 184.492188 320.890625 C 202.109375 310.667969 230.769531 310.667969 248.5 320.890625 C 263.996094 329.824219 266.300781 343.640625 254.734375 353.863281 L 316.714844 389.59375 L 336.394531 378.175781 L 346.296875 383.886719 L 326.621094 395.304688 L 335.566406 400.460938 L 355.242188 389.042969 " fill-opacity="1" fill-rule="nonzero"/></g><g clip-path="url(#id11)"><path fill="rgb(85.099792%, 85.099792%, 85.099792%)" d="M 332.296875 413.820312 L 332.238281 434.183594 L 295.65625 413.09375 L 295.714844 392.726562 L 332.296875 413.820312 " fill-opacity="1" fill-rule="nonzero"/></g><g mask="url(#id12)"><g transform="matrix(1, 0, 0, 1, 0, 501)"><g clip-path="url(#id14)"><g clip-path="url(#id13)"><path fill="rgb(100%, 100%, 100%)" d="M 161.644531 121.800781 C 156.789062 96.304688 142.636719 73.925781 126.445312 54.046875 C 112.140625 36.523438 95.179688 20.835938 74.691406 10.871094 C 64.78125 6.015625 53.59375 1.570312 42.507812 0.957031 C 31.472656 0.34375 20.335938 2.542969 10.222656 6.988281 C -0.046875 11.433594 -9.398438 18.382812 -16.394531 27.070312 C -24.363281 36.878906 -28.808594 48.683594 -33.457031 60.332031 C -43.980469 86.800781 -60.125 110.507812 -70.855469 136.976562 C -80.355469 160.378906 -85.003906 187.050781 -75.296875 211.273438 C -66 234.367188 -44.339844 247.652344 -20.535156 252.148438 C 6.695312 257.207031 34.84375 251.691406 60.183594 241.214844 C 72.90625 236.003906 85.0625 229.515625 96.914062 222.511719 C 108.613281 215.5625 120.363281 208.460938 131.296875 200.390625 C 141.207031 193.082031 149.890625 184.445312 155.359375 173.308594 C 160.570312 162.730469 163.074219 150.875 163.175781 139.074219 C 163.226562 133.195312 162.613281 127.421875 161.644531 121.800781 " fill-opacity="1" fill-rule="nonzero"/></g></g></g></g><g mask="url(#id15)"><g transform="matrix(1, 0, 0, 1, 1116, 24)"><g clip-path="url(#id19)"><g clip-path="url(#id16)"><g clip-path="url(#id17)"><g clip-path="url(#id18)"><path fill="rgb(100%, 100%, 100%)" d="M 21.535156 278.128906 C 33.917969 324.535156 63.050781 363.9375 95.613281 398.449219 C 124.375 428.871094 157.792969 455.546875 196.953125 471.183594 C 215.902344 478.8125 237.152344 485.515625 257.703125 485.15625 C 278.15625 484.808594 298.421875 479.257812 316.5 469.695312 C 334.863281 460.113281 351.1875 446.03125 362.945312 429.058594 C 376.339844 409.882812 382.960938 387.503906 389.980469 365.378906 C 405.855469 315.117188 432.480469 269.191406 448.734375 218.902344 C 463.132812 174.4375 468.136719 124.585938 446.964844 81.191406 C 426.699219 39.816406 384.925781 18.203125 340.371094 13.101562 C 289.421875 7.421875 238.195312 21.386719 192.820312 44.121094 C 170.035156 55.449219 148.460938 69.058594 127.515625 83.566406 C 106.851562 97.964844 86.113281 112.648438 67.011719 129.015625 C 49.695312 143.832031 34.820312 160.9375 26.222656 182.230469 C 18.023438 202.449219 14.992188 224.664062 16.390625 246.460938 C 17.082031 257.3125 18.992188 267.886719 21.535156 278.128906 " fill-opacity="1" fill-rule="nonzero"/></g></g></g></g></g></g><g clip-path="url(#id20)"><g clip-path="url(#id21)"><g clip-path="url(#id22)"><path fill="rgb(100%, 8.628845%, 8.628845%)" d="M 1404.261719 279.703125 C 1404.25 279.699219 1404.242188 279.691406 1404.230469 279.6875 C 1403.753906 279.445312 1403.5625 278.863281 1403.804688 278.382812 C 1409.375 267.445312 1409.597656 252.019531 1404.351562 240.875 C 1402.128906 236.140625 1399.527344 232.027344 1396.390625 228.300781 C 1396.046875 227.890625 1396.101562 227.277344 1396.511719 226.933594 C 1396.921875 226.589844 1397.53125 226.640625 1397.878906 227.050781 C 1401.125 230.910156 1403.816406 235.160156 1406.109375 240.050781 C 1411.597656 251.703125 1411.363281 267.828125 1405.539062 279.261719 C 1405.300781 279.734375 1404.734375 279.925781 1404.261719 279.703125 " fill-opacity="1" fill-rule="nonzero"/></g></g></g><g clip-path="url(#id23)"><g clip-path="url(#id24)"><g clip-path="url(#id25)"><path fill="rgb(100%, 8.628845%, 8.628845%)" d="M 1327.839844 256.753906 C 1327.632812 256.65625 1327.457031 256.484375 1327.359375 256.253906 C 1327.148438 255.761719 1327.375 255.1875 1327.871094 254.980469 C 1331.230469 253.550781 1334.585938 252.351562 1337.542969 251.300781 L 1339.28125 250.679688 C 1349.636719 246.949219 1357.785156 244.371094 1368.363281 245.175781 C 1375.871094 245.738281 1381.917969 247.183594 1388.84375 252.628906 C 1398.230469 260 1402.210938 268.003906 1405.597656 278.527344 C 1405.761719 279.039062 1405.480469 279.585938 1404.96875 279.75 C 1404.460938 279.914062 1403.910156 279.632812 1403.746094 279.121094 C 1400.476562 268.945312 1396.640625 261.222656 1387.640625 254.15625 C 1381.847656 249.597656 1376.761719 247.753906 1368.214844 247.113281 C 1358.023438 246.339844 1350.070312 248.859375 1339.941406 252.507812 L 1338.199219 253.128906 C 1335.265625 254.175781 1331.941406 255.363281 1328.632812 256.769531 C 1328.367188 256.882812 1328.082031 256.867188 1327.839844 256.753906 " fill-opacity="1" fill-rule="nonzero"/></g></g></g><g clip-path="url(#id26)"><g clip-path="url(#id27)"><g clip-path="url(#id28)"><path fill="rgb(100%, 8.628845%, 8.628845%)" d="M 1393.722656 327.4375 C 1393.324219 327.253906 1393.089844 326.816406 1393.179688 326.371094 C 1396.839844 307.933594 1402.367188 280.070312 1386.351562 267.117188 C 1379.417969 261.515625 1370.546875 259.6875 1361.371094 261.96875 C 1359.140625 262.523438 1356.125 263.761719 1352.9375 265.070312 C 1344.175781 268.664062 1333.28125 273.144531 1327.339844 268.386719 C 1325.5625 266.964844 1324.554688 265.273438 1324.347656 263.359375 C 1324.082031 260.894531 1325.140625 258.171875 1327.496094 255.261719 C 1327.832031 254.847656 1328.441406 254.78125 1328.863281 255.121094 C 1329.28125 255.457031 1329.347656 256.070312 1329.007812 256.484375 C 1327.019531 258.941406 1326.074219 261.246094 1326.28125 263.152344 C 1326.433594 264.554688 1327.175781 265.769531 1328.554688 266.871094 C 1328.96875 267.203125 1329.417969 267.480469 1329.898438 267.703125 C 1335.273438 270.21875 1344.585938 266.394531 1352.195312 263.273438 C 1355.453125 261.9375 1358.527344 260.671875 1360.902344 260.085938 C 1370.683594 257.652344 1380.15625 259.613281 1387.574219 265.609375 C 1404.503906 279.300781 1398.835938 307.855469 1395.085938 326.75 C 1394.984375 327.273438 1394.472656 327.617188 1393.945312 327.511719 C 1393.863281 327.496094 1393.789062 327.472656 1393.722656 327.4375 " fill-opacity="1" fill-rule="nonzero"/></g></g></g><g clip-path="url(#id29)"><g clip-path="url(#id30)"><g clip-path="url(#id31)"><g clip-path="url(#id32)"><g clip-path="url(#id33)"><path fill="rgb(100%, 8.628845%, 8.628845%)" d="M 1341.46875 395.730469 C 1341.222656 395.613281 1341.023438 395.398438 1340.945312 395.117188 C 1340.796875 394.601562 1341.09375 394.0625 1341.613281 393.917969 C 1352.425781 390.824219 1364.347656 383.726562 1371.269531 378.585938 C 1380.164062 372 1384.65625 360.121094 1385.890625 351.195312 C 1387.464844 339.914062 1384.695312 320.714844 1375.40625 314.015625 C 1364.988281 306.507812 1354.71875 305.933594 1342.832031 305.269531 C 1341.988281 305.222656 1341.140625 305.175781 1340.285156 305.128906 C 1336.289062 304.898438 1328.175781 303.164062 1326.105469 298.226562 C 1324.445312 294.265625 1326.53125 290.46875 1331.824219 287.8125 C 1332.304688 287.570312 1332.890625 287.765625 1333.128906 288.246094 C 1333.371094 288.722656 1333.179688 289.308594 1332.699219 289.550781 C 1329.636719 291.085938 1326.320312 293.707031 1327.898438 297.476562 C 1329.476562 301.230469 1336.234375 302.949219 1340.394531 303.1875 C 1341.253906 303.238281 1342.101562 303.285156 1342.9375 303.332031 C 1355.132812 304.011719 1365.664062 304.597656 1376.546875 312.4375 C 1382.371094 316.644531 1385.238281 324.589844 1386.621094 330.515625 C 1388.234375 337.433594 1388.683594 345.265625 1387.816406 351.464844 C 1386.527344 360.777344 1381.804688 373.203125 1372.429688 380.144531 C 1365.375 385.382812 1353.214844 392.625 1342.148438 395.785156 C 1341.914062 395.851562 1341.675781 395.824219 1341.46875 395.730469 " fill-opacity="1" fill-rule="nonzero"/></g></g></g></g></g><g clip-path="url(#id34)"><g clip-path="url(#id35)"><g clip-path="url(#id36)"><path fill="rgb(100%, 8.628845%, 8.628845%)" d="M 1393.722656 327.4375 C 1393.480469 327.328125 1393.292969 327.121094 1393.207031 326.847656 C 1388.136719 310.703125 1379.675781 300.082031 1368.078125 295.277344 C 1357.09375 290.742188 1344.734375 288.796875 1332.328125 289.652344 C 1331.796875 289.6875 1331.328125 289.285156 1331.292969 288.75 C 1331.253906 288.214844 1331.660156 287.75 1332.195312 287.710938 C 1344.894531 286.835938 1357.558594 288.832031 1368.816406 293.484375 C 1380.984375 298.511719 1389.808594 309.542969 1395.0625 326.269531 C 1395.222656 326.78125 1394.9375 327.324219 1394.425781 327.488281 C 1394.183594 327.5625 1393.933594 327.539062 1393.722656 327.4375 " fill-opacity="1" fill-rule="nonzero"/></g></g></g><g clip-path="url(#id37)"><g clip-path="url(#id38)"><g clip-path="url(#id39)"><path fill="rgb(100%, 8.628845%, 8.628845%)" d="M 1341.46875 395.730469 C 1341.058594 395.539062 1340.828125 395.082031 1340.929688 394.628906 C 1345.902344 373.347656 1342.820312 349.460938 1333.074219 333.769531 C 1330.589844 329.761719 1325.523438 322.503906 1319.546875 318.917969 C 1319.085938 318.644531 1318.9375 318.046875 1319.214844 317.589844 C 1319.488281 317.128906 1320.082031 316.976562 1320.546875 317.257812 C 1326.875 321.046875 1332.144531 328.589844 1334.726562 332.746094 C 1344.726562 348.851562 1347.910156 373.316406 1342.828125 395.070312 C 1342.703125 395.59375 1342.183594 395.917969 1341.65625 395.796875 C 1341.59375 395.78125 1341.527344 395.757812 1341.46875 395.730469 " fill-opacity="1" fill-rule="nonzero"/></g></g></g><g clip-path="url(#id40)"><g clip-path="url(#id41)"><g clip-path="url(#id42)"><path fill="rgb(100%, 8.628845%, 8.628845%)" d="M 1328.820312 412.285156 C 1328.347656 412.0625 1328.128906 411.503906 1328.339844 411.019531 C 1335.5 394.429688 1333.105469 371.484375 1321.9375 349.636719 C 1320.847656 347.507812 1319.078125 345.253906 1317.203125 342.863281 C 1312.898438 337.375 1308.015625 331.15625 1310.0625 324.355469 C 1311.246094 320.402344 1314.746094 317.832031 1319.914062 317.125 C 1320.445312 317.054688 1320.9375 317.425781 1321.007812 317.957031 C 1321.082031 318.488281 1320.710938 318.976562 1320.179688 319.050781 C 1317.648438 319.398438 1313.214844 320.621094 1311.925781 324.917969 C 1310.167969 330.753906 1314.519531 336.300781 1318.730469 341.664062 C 1320.664062 344.128906 1322.492188 346.460938 1323.667969 348.753906 C 1335.097656 371.109375 1337.511719 394.675781 1330.125 411.792969 C 1329.914062 412.285156 1329.339844 412.511719 1328.847656 412.296875 C 1328.835938 412.292969 1328.832031 412.289062 1328.820312 412.285156 " fill-opacity="1" fill-rule="nonzero"/></g></g></g><g clip-path="url(#id43)"><g clip-path="url(#id44)"><g clip-path="url(#id45)"><path fill="rgb(100%, 8.628845%, 8.628845%)" d="M 1263.121094 442.90625 C 1262.816406 442.761719 1262.59375 442.464844 1262.566406 442.105469 C 1262.523438 441.570312 1262.917969 441.101562 1263.453125 441.058594 C 1271.46875 440.390625 1279.242188 436.480469 1284.773438 430.328125 C 1285.824219 429.160156 1286.808594 427.964844 1287.761719 426.808594 C 1291.566406 422.183594 1295.15625 417.820312 1302.175781 416.15625 C 1305.242188 415.433594 1308.335938 415.59375 1311.328125 415.75 C 1314.660156 415.921875 1317.8125 416.085938 1320.871094 415.101562 C 1323.839844 414.148438 1326.363281 412.703125 1328.578125 410.6875 C 1328.972656 410.328125 1329.585938 410.355469 1329.949219 410.753906 C 1330.3125 411.148438 1330.285156 411.761719 1329.886719 412.125 C 1327.460938 414.332031 1324.707031 415.914062 1321.46875 416.953125 C 1318.066406 418.042969 1314.589844 417.863281 1311.226562 417.6875 C 1308.242188 417.535156 1305.421875 417.386719 1302.625 418.046875 C 1296.246094 419.558594 1293.007812 423.492188 1289.261719 428.042969 C 1288.296875 429.21875 1287.300781 430.433594 1286.21875 431.628906 C 1280.359375 438.144531 1272.121094 442.285156 1263.613281 442.992188 C 1263.441406 443.007812 1263.273438 442.976562 1263.121094 442.90625 " fill-opacity="1" fill-rule="nonzero"/></g></g></g><g clip-path="url(#id46)"><g clip-path="url(#id47)"><g clip-path="url(#id48)"><path fill="rgb(100%, 8.628845%, 8.628845%)" d="M 1263.121094 442.90625 C 1262.640625 442.679688 1262.429688 442.109375 1262.648438 441.625 C 1263.726562 439.246094 1264.851562 436.863281 1265.9375 434.558594 C 1271.207031 423.378906 1276.1875 412.816406 1277.523438 400.179688 C 1279.226562 383.933594 1275.976562 368.148438 1268.113281 354.523438 C 1267.84375 354.0625 1268.007812 353.464844 1268.472656 353.199219 C 1268.9375 352.929688 1269.53125 353.089844 1269.800781 353.558594 C 1277.867188 367.535156 1281.203125 383.730469 1279.457031 400.386719 C 1278.085938 413.351562 1272.804688 424.554688 1267.695312 435.386719 C 1266.613281 437.683594 1265.492188 440.058594 1264.421875 442.425781 C 1264.199219 442.914062 1263.625 443.132812 1263.132812 442.910156 C 1263.128906 442.910156 1263.128906 442.90625 1263.121094 442.90625 " fill-opacity="1" fill-rule="nonzero"/></g></g></g><g clip-path="url(#id49)"><g clip-path="url(#id50)"><g clip-path="url(#id51)"><path fill="rgb(100%, 8.628845%, 8.628845%)" d="M 1183.625 482.734375 C 1183.492188 482.671875 1183.367188 482.574219 1183.269531 482.445312 C 1182.941406 482.023438 1183.019531 481.410156 1183.445312 481.085938 L 1183.648438 480.925781 C 1183.828125 480.785156 1184.007812 480.648438 1184.195312 480.515625 C 1192.066406 474.464844 1201.460938 468.898438 1212.082031 463.988281 C 1214.164062 463.027344 1216.300781 462.105469 1218.566406 461.128906 C 1226.054688 457.898438 1233.796875 454.558594 1239.777344 449.613281 C 1248.746094 442.203125 1254.296875 429.058594 1256.273438 410.542969 C 1256.753906 406.078125 1257.074219 401.683594 1257.386719 397.433594 C 1258.523438 381.890625 1259.59375 367.210938 1268.132812 353.527344 C 1268.414062 353.070312 1269.023438 352.941406 1269.46875 353.214844 C 1269.925781 353.503906 1270.066406 354.101562 1269.78125 354.554688 C 1261.5 367.835938 1260.441406 382.28125 1259.324219 397.578125 C 1259.011719 401.84375 1258.691406 406.253906 1258.207031 410.753906 C 1256.171875 429.789062 1250.390625 443.371094 1241.015625 451.113281 C 1234.824219 456.230469 1226.949219 459.628906 1219.339844 462.910156 C 1217.085938 463.882812 1214.957031 464.800781 1212.894531 465.753906 C 1202.40625 470.601562 1193.136719 476.09375 1185.351562 482.078125 C 1185.160156 482.214844 1185.003906 482.332031 1184.847656 482.457031 L 1184.632812 482.625 C 1184.335938 482.855469 1183.945312 482.882812 1183.625 482.734375 " fill-opacity="1" fill-rule="nonzero"/></g></g></g><g clip-path="url(#id52)"><g clip-path="url(#id53)"><g clip-path="url(#id54)"><g clip-path="url(#id55)"><g clip-path="url(#id56)"><path fill="rgb(100%, 8.628845%, 8.628845%)" d="M 1183.976562 483.464844 C 1183.785156 483.375 1183.621094 483.222656 1183.519531 483.019531 C 1183.398438 482.773438 1183.277344 482.519531 1183.160156 482.265625 C 1176.839844 469.011719 1171.21875 454.691406 1166.457031 439.703125 C 1161.839844 425.171875 1163.210938 412.515625 1170.757812 399.878906 C 1180.015625 384.367188 1191.378906 374.648438 1209.976562 366.339844 C 1214.53125 364.308594 1223.007812 360.527344 1224.566406 355.222656 C 1225.148438 353.234375 1224.738281 351.207031 1223.304688 349.015625 C 1223.125 348.734375 1222.933594 348.476562 1222.730469 348.238281 C 1222.378906 347.828125 1222.421875 347.21875 1222.828125 346.867188 C 1223.234375 346.515625 1223.847656 346.558594 1224.199219 346.96875 C 1224.46875 347.277344 1224.71875 347.613281 1224.941406 347.96875 C 1226.667969 350.613281 1227.171875 353.242188 1226.429688 355.769531 C 1224.617188 361.933594 1215.949219 365.800781 1210.773438 368.113281 C 1192.570312 376.242188 1181.460938 385.734375 1172.425781 400.875 C 1165.183594 413.003906 1163.875 425.152344 1168.3125 439.113281 C 1173.042969 454.019531 1178.632812 468.257812 1184.917969 481.4375 C 1185.03125 481.683594 1185.144531 481.917969 1185.257812 482.152344 C 1185.5 482.632812 1185.304688 483.21875 1184.824219 483.457031 C 1184.546875 483.589844 1184.238281 483.585938 1183.976562 483.464844 " fill-opacity="1" fill-rule="nonzero"/></g></g></g></g></g><g clip-path="url(#id57)"><g clip-path="url(#id58)"><g clip-path="url(#id59)"><path fill="rgb(100%, 8.628845%, 8.628845%)" d="M 1150.011719 417.039062 C 1149.550781 416.820312 1149.332031 416.277344 1149.523438 415.796875 C 1157.214844 396.6875 1170.960938 376.691406 1185.394531 363.609375 C 1194.574219 355.292969 1206.253906 350.0625 1223.273438 346.648438 C 1223.796875 346.542969 1224.3125 346.886719 1224.417969 347.414062 C 1224.523438 347.9375 1224.183594 348.449219 1223.65625 348.554688 C 1207 351.894531 1195.601562 356.984375 1186.703125 365.050781 C 1172.472656 377.945312 1158.917969 397.667969 1151.328125 416.523438 C 1151.125 417.019531 1150.558594 417.261719 1150.0625 417.058594 C 1150.046875 417.054688 1150.03125 417.046875 1150.011719 417.039062 " fill-opacity="1" fill-rule="nonzero"/></g></g></g><g clip-path="url(#id60)"><g clip-path="url(#id61)"><g clip-path="url(#id62)"><path fill="rgb(100%, 8.628845%, 8.628845%)" d="M 1150.011719 417.039062 C 1149.847656 416.960938 1149.703125 416.835938 1149.601562 416.671875 C 1148.777344 415.347656 1147.527344 414.417969 1146.203125 413.429688 C 1144.578125 412.21875 1142.894531 410.96875 1141.761719 408.855469 C 1140.789062 407.050781 1140.828125 405.457031 1140.867188 403.917969 C 1140.882812 403.253906 1140.898438 402.566406 1140.835938 401.835938 C 1140.238281 394.621094 1137.980469 390.488281 1134.5625 384.234375 L 1133.820312 382.875 C 1129.425781 374.800781 1128.375 366.695312 1130.78125 359.433594 C 1133.5 351.222656 1140.660156 344.097656 1150.941406 339.355469 C 1154.300781 337.808594 1158.238281 336.984375 1162.050781 336.1875 C 1169.382812 334.652344 1176.308594 333.203125 1179.96875 327.128906 C 1181.101562 325.253906 1181.683594 323.371094 1181.699219 321.523438 C 1181.707031 320.988281 1182.148438 320.558594 1182.683594 320.5625 C 1183.21875 320.566406 1183.652344 321.003906 1183.644531 321.542969 C 1183.621094 323.742188 1182.945312 325.960938 1181.632812 328.132812 C 1177.535156 334.933594 1169.867188 336.535156 1162.449219 338.085938 C 1158.574219 338.898438 1154.914062 339.664062 1151.757812 341.117188 C 1141.96875 345.632812 1135.175781 352.355469 1132.625 360.042969 C 1130.363281 366.882812 1131.335938 374.25 1135.527344 381.949219 L 1136.269531 383.304688 C 1139.679688 389.542969 1142.144531 394.054688 1142.777344 401.675781 C 1142.84375 402.507812 1142.828125 403.253906 1142.808594 403.96875 C 1142.773438 405.429688 1142.746094 406.585938 1143.472656 407.9375 C 1144.402344 409.667969 1145.839844 410.738281 1147.363281 411.875 C 1148.773438 412.925781 1150.234375 414.007812 1151.25 415.648438 C 1151.535156 416.101562 1151.394531 416.703125 1150.9375 416.984375 C 1150.652344 417.164062 1150.300781 417.175781 1150.011719 417.039062 " fill-opacity="1" fill-rule="nonzero"/></g></g></g><g clip-path="url(#id63)"><g clip-path="url(#id64)"><g clip-path="url(#id65)"><path fill="rgb(100%, 8.628845%, 8.628845%)" d="M 1129.070312 341.894531 C 1128.976562 341.851562 1128.894531 341.792969 1128.816406 341.71875 C 1128.421875 341.351562 1128.40625 340.738281 1128.773438 340.347656 C 1138.234375 330.328125 1151.679688 323.339844 1167.660156 320.140625 C 1172.320312 319.210938 1178.285156 318.429688 1183.082031 320.652344 C 1183.082031 320.652344 1183.082031 320.652344 1183.085938 320.65625 C 1183.570312 320.882812 1183.78125 321.457031 1183.558594 321.941406 C 1183.328125 322.425781 1182.753906 322.640625 1182.265625 322.414062 C 1177.976562 320.429688 1172.414062 321.175781 1168.042969 322.046875 C 1152.460938 325.164062 1139.371094 331.953125 1130.191406 341.679688 C 1129.890625 341.992188 1129.4375 342.066406 1129.070312 341.894531 " fill-opacity="1" fill-rule="nonzero"/></g></g></g><g clip-path="url(#id66)"><g clip-path="url(#id67)"><g clip-path="url(#id68)"><path fill="rgb(100%, 8.628845%, 8.628845%)" d="M 1129.070312 341.894531 C 1128.605469 341.675781 1128.386719 341.128906 1128.582031 340.652344 C 1130.308594 336.355469 1131.734375 332.453125 1131.6875 328.144531 C 1131.636719 323.589844 1129.796875 321.921875 1127.25 319.613281 C 1126.269531 318.722656 1125.160156 317.71875 1124.082031 316.453125 C 1116.28125 307.296875 1123.1875 292.875 1127.996094 285.089844 C 1128.277344 284.636719 1128.878906 284.496094 1129.335938 284.773438 C 1129.792969 285.058594 1129.933594 285.65625 1129.648438 286.113281 C 1119.09375 303.199219 1122.554688 311.667969 1125.5625 315.195312 C 1126.558594 316.363281 1127.574219 317.285156 1128.554688 318.175781 C 1131.136719 320.511719 1133.570312 322.722656 1133.632812 328.121094 C 1133.683594 332.785156 1132.125 337.054688 1130.382812 341.378906 C 1130.183594 341.875 1129.617188 342.117188 1129.117188 341.914062 C 1129.101562 341.90625 1129.085938 341.902344 1129.070312 341.894531 " fill-opacity="1" fill-rule="nonzero"/></g></g></g><g clip-path="url(#id69)"><g clip-path="url(#id70)"><g clip-path="url(#id71)"><path fill="rgb(100%, 8.628845%, 8.628845%)" d="M 1128.414062 286.480469 C 1128.277344 286.417969 1128.15625 286.324219 1128.058594 286.203125 C 1127.726562 285.777344 1127.800781 285.167969 1128.222656 284.835938 C 1151.605469 266.539062 1182.949219 264.132812 1199.550781 264.332031 C 1201.136719 264.347656 1203.035156 264.640625 1205.042969 264.953125 C 1211.804688 266.003906 1217.105469 266.46875 1218.742188 262.164062 C 1218.933594 261.664062 1219.496094 261.410156 1220 261.601562 C 1220.492188 261.796875 1220.75 262.355469 1220.558594 262.855469 C 1218.230469 268.972656 1210.753906 267.808594 1204.746094 266.871094 C 1202.808594 266.570312 1200.976562 266.289062 1199.53125 266.273438 C 1161.445312 265.824219 1139.257812 278.667969 1129.421875 286.367188 C 1129.125 286.601562 1128.734375 286.632812 1128.414062 286.480469 " fill-opacity="1" fill-rule="nonzero"/></g></g></g><g clip-path="url(#id72)"><g clip-path="url(#id73)"><g clip-path="url(#id74)"><g clip-path="url(#id75)"><g clip-path="url(#id76)"><path fill="rgb(100%, 8.628845%, 8.628845%)" d="M 1183.976562 483.464844 C 1183.550781 483.265625 1183.320312 482.785156 1183.453125 482.316406 L 1185.023438 476.855469 C 1193.886719 446.007812 1203.046875 414.109375 1215.535156 384.179688 C 1228.09375 354.074219 1245.484375 325.5 1260.835938 301.519531 C 1262.707031 298.59375 1264.59375 295.605469 1266.503906 292.585938 C 1275.234375 278.746094 1284.265625 264.441406 1294.632812 251.773438 C 1295.882812 250.242188 1297.0625 248.839844 1298.238281 247.503906 L 1298.484375 247.21875 C 1298.835938 246.8125 1299.453125 246.769531 1299.855469 247.121094 C 1300.261719 247.472656 1300.304688 248.085938 1299.953125 248.492188 L 1299.703125 248.78125 C 1298.542969 250.105469 1297.378906 251.488281 1296.140625 253.003906 C 1285.847656 265.578125 1276.847656 279.835938 1268.148438 293.625 C 1266.234375 296.648438 1264.351562 299.636719 1262.472656 302.566406 C 1247.167969 326.480469 1229.832031 354.960938 1217.332031 384.925781 C 1204.886719 414.753906 1195.738281 446.597656 1186.894531 477.394531 L 1185.324219 482.851562 C 1185.175781 483.371094 1184.636719 483.667969 1184.121094 483.519531 C 1184.070312 483.503906 1184.023438 483.488281 1183.976562 483.464844 " fill-opacity="1" fill-rule="nonzero"/></g></g></g></g></g><g clip-path="url(#id77)"><g clip-path="url(#id78)"><g clip-path="url(#id79)"><path fill="rgb(100%, 8.628845%, 8.628845%)" d="M 1146.339844 247.347656 C 1146.296875 247.328125 1146.257812 247.308594 1146.21875 247.28125 C 1145.769531 246.988281 1145.640625 246.382812 1145.9375 245.9375 C 1149.40625 240.644531 1154.066406 236.242188 1158.574219 231.980469 C 1160.019531 230.613281 1161.519531 229.195312 1162.945312 227.78125 L 1164.128906 226.605469 C 1172.1875 218.589844 1182.214844 208.621094 1193.542969 205.800781 C 1203.011719 203.453125 1213.785156 206.621094 1221.15625 209.691406 C 1229.96875 213.363281 1237.253906 218.574219 1243.957031 223.589844 C 1255.851562 232.511719 1264.617188 237.882812 1276.855469 240.734375 C 1277.378906 240.859375 1277.707031 241.382812 1277.585938 241.902344 C 1277.464844 242.425781 1276.9375 242.753906 1276.417969 242.628906 C 1263.839844 239.699219 1254.898438 234.222656 1242.789062 225.144531 C 1236.1875 220.203125 1229.015625 215.074219 1220.410156 211.484375 C 1213.3125 208.527344 1202.96875 205.46875 1194.015625 207.6875 C 1183.207031 210.375 1173.390625 220.140625 1165.5 227.980469 L 1164.3125 229.164062 C 1162.875 230.589844 1161.367188 232.015625 1159.910156 233.390625 C 1155.488281 237.574219 1150.910156 241.898438 1147.5625 247.003906 C 1147.296875 247.410156 1146.769531 247.550781 1146.339844 247.347656 " fill-opacity="1" fill-rule="nonzero"/></g></g></g><g clip-path="url(#id80)"><g clip-path="url(#id81)"><g clip-path="url(#id82)"><path fill="rgb(100%, 8.628845%, 8.628845%)" d="M 1297.578125 235.410156 C 1297.316406 235.285156 1297.105469 235.042969 1297.042969 234.734375 C 1296.792969 233.613281 1296.5625 232.433594 1296.300781 231.027344 C 1296.203125 230.5 1296.554688 229.992188 1297.082031 229.898438 C 1297.609375 229.800781 1298.117188 230.152344 1298.214844 230.679688 C 1298.46875 232.0625 1298.699219 233.21875 1298.941406 234.320312 C 1299.054688 234.84375 1298.722656 235.363281 1298.199219 235.476562 C 1297.980469 235.523438 1297.765625 235.496094 1297.578125 235.410156 " fill-opacity="1" fill-rule="nonzero"/></g></g></g><g clip-path="url(#id83)"><g clip-path="url(#id84)"><g clip-path="url(#id85)"><path fill="rgb(100%, 8.628845%, 8.628845%)" d="M 1296.828125 231.628906 C 1296.554688 231.5 1296.34375 231.246094 1296.285156 230.921875 C 1296.019531 229.488281 1295.800781 228.167969 1295.613281 227.046875 C 1295.457031 226.113281 1295.324219 225.316406 1295.207031 224.699219 C 1292.882812 212.539062 1289.984375 199.851562 1282.457031 190.140625 C 1273.609375 178.730469 1260.953125 171.59375 1247.742188 170.550781 C 1238.9375 169.855469 1230.664062 173.394531 1222.664062 176.820312 C 1221.347656 177.378906 1220.039062 177.941406 1218.726562 178.484375 C 1218.230469 178.691406 1217.664062 178.453125 1217.457031 177.960938 C 1217.25 177.464844 1217.488281 176.894531 1217.984375 176.6875 C 1219.285156 176.148438 1220.589844 175.59375 1221.894531 175.035156 C 1230.113281 171.515625 1238.613281 167.878906 1247.890625 168.617188 C 1261.652344 169.695312 1274.8125 177.109375 1283.992188 188.953125 C 1291.785156 199.003906 1294.75 211.945312 1297.117188 224.339844 C 1297.234375 224.96875 1297.371094 225.777344 1297.53125 226.726562 C 1297.714844 227.84375 1297.933594 229.152344 1298.195312 230.574219 C 1298.292969 231.101562 1297.941406 231.609375 1297.414062 231.703125 C 1297.207031 231.742188 1297.003906 231.710938 1296.828125 231.628906 " fill-opacity="1" fill-rule="nonzero"/></g></g></g><g clip-path="url(#id86)"><g clip-path="url(#id87)"><g clip-path="url(#id88)"><path fill="rgb(100%, 8.628845%, 8.628845%)" d="M 1276.226562 242.5625 C 1275.933594 242.425781 1275.710938 242.140625 1275.671875 241.796875 C 1275.558594 240.847656 1275.183594 239.738281 1274.554688 238.5 C 1273.132812 235.722656 1271.292969 233.03125 1269.515625 230.433594 C 1268.296875 228.65625 1267.039062 226.816406 1265.914062 224.949219 C 1260.5625 216.0625 1241.300781 186.457031 1218.042969 178.503906 C 1217.53125 178.332031 1217.261719 177.78125 1217.433594 177.273438 C 1217.609375 176.765625 1218.160156 176.496094 1218.667969 176.667969 C 1242.546875 184.828125 1262.140625 214.921875 1267.582031 223.949219 C 1268.675781 225.765625 1269.917969 227.582031 1271.121094 229.339844 C 1272.933594 231.988281 1274.808594 234.730469 1276.285156 237.617188 C 1277.023438 239.066406 1277.464844 240.394531 1277.601562 241.570312 C 1277.664062 242.105469 1277.28125 242.585938 1276.75 242.648438 C 1276.5625 242.667969 1276.382812 242.636719 1276.226562 242.5625 " fill-opacity="1" fill-rule="nonzero"/></g></g></g><g clip-path="url(#id89)"><g clip-path="url(#id90)"><g clip-path="url(#id91)"><path fill="rgb(100%, 8.628845%, 8.628845%)" d="M 1148.480469 249.535156 C 1147.152344 248.917969 1146.269531 248.003906 1145.835938 246.796875 C 1145.65625 246.292969 1145.917969 245.734375 1146.421875 245.554688 C 1146.925781 245.371094 1147.484375 245.636719 1147.664062 246.140625 C 1148.339844 248.019531 1151.171875 248.492188 1153.421875 248.558594 C 1156.339844 248.640625 1159.261719 248.03125 1162.089844 247.4375 C 1163.648438 247.113281 1165.257812 246.777344 1166.863281 246.554688 C 1168.089844 246.382812 1169.378906 246.199219 1170.703125 246.003906 C 1177.921875 244.949219 1186.101562 243.753906 1192.78125 244.328125 C 1209.15625 245.722656 1215.78125 253.664062 1220.496094 262.035156 C 1220.761719 262.503906 1220.597656 263.09375 1220.128906 263.355469 C 1219.660156 263.621094 1219.066406 263.453125 1218.804688 262.984375 C 1213.65625 253.851562 1207.230469 247.507812 1192.617188 246.265625 C 1186.160156 245.707031 1178.101562 246.886719 1170.988281 247.925781 C 1169.65625 248.121094 1168.363281 248.308594 1167.132812 248.480469 C 1165.59375 248.691406 1164.015625 249.019531 1162.488281 249.339844 C 1159.550781 249.953125 1156.515625 250.589844 1153.371094 250.5 C 1151.355469 250.441406 1149.722656 250.117188 1148.480469 249.535156 " fill-opacity="1" fill-rule="nonzero"/></g></g></g><g clip-path="url(#id92)"><g clip-path="url(#id93)"><g clip-path="url(#id94)"><path fill="rgb(100%, 8.628845%, 8.628845%)" d="M 1298.558594 249.023438 C 1298.3125 248.910156 1298.117188 248.691406 1298.035156 248.414062 C 1297.886719 247.898438 1298.179688 247.359375 1298.695312 247.210938 C 1298.730469 247.199219 1298.757812 247.1875 1298.785156 247.175781 L 1298.890625 247.136719 C 1299.390625 246.949219 1299.902344 246.761719 1300.410156 246.574219 C 1300.917969 246.386719 1301.421875 246.199219 1301.929688 246.011719 C 1303.6875 245.363281 1305.761719 244.59375 1307.820312 243.796875 C 1308.554688 243.519531 1309.28125 243.238281 1310.007812 242.949219 C 1313.738281 241.472656 1317.164062 239.738281 1320.789062 237.902344 C 1321.636719 237.476562 1322.484375 237.042969 1323.339844 236.617188 C 1325.6875 235.441406 1328.023438 234.226562 1330.492188 232.9375 C 1335.492188 230.332031 1340.667969 227.632812 1345.96875 225.320312 C 1355.933594 220.96875 1364.222656 218.945312 1372.054688 218.953125 C 1373.617188 218.9375 1375.253906 219.023438 1376.90625 219.207031 C 1383.550781 219.953125 1390.378906 222.3125 1396.136719 225.835938 C 1396.734375 226.203125 1397.25 226.550781 1397.71875 226.898438 C 1398.144531 227.21875 1398.234375 227.824219 1397.914062 228.257812 C 1397.59375 228.6875 1396.984375 228.777344 1396.554688 228.457031 C 1396.132812 228.136719 1395.671875 227.832031 1395.121094 227.492188 C 1389.601562 224.109375 1383.058594 221.855469 1376.691406 221.136719 C 1375.117188 220.960938 1373.558594 220.878906 1372.0625 220.894531 C 1364.5 220.886719 1356.460938 222.859375 1346.746094 227.097656 C 1341.507812 229.386719 1336.367188 232.070312 1331.390625 234.664062 C 1328.914062 235.953125 1326.574219 237.171875 1324.214844 238.351562 C 1323.359375 238.78125 1322.515625 239.207031 1321.667969 239.636719 C 1318.164062 241.410156 1314.539062 243.246094 1310.726562 244.753906 C 1309.992188 245.046875 1309.257812 245.332031 1308.515625 245.613281 C 1306.453125 246.410156 1304.371094 247.183594 1302.605469 247.832031 C 1302.105469 248.019531 1301.59375 248.210938 1301.085938 248.394531 C 1300.578125 248.582031 1300.070312 248.769531 1299.566406 248.960938 L 1299.496094 248.988281 C 1299.414062 249.019531 1299.328125 249.050781 1299.242188 249.074219 C 1299.003906 249.144531 1298.765625 249.121094 1298.558594 249.023438 " fill-opacity="1" fill-rule="nonzero"/></g></g></g><g clip-path="url(#id95)"><g clip-path="url(#id96)"><g clip-path="url(#id97)"><path fill="rgb(100%, 8.628845%, 8.628845%)" d="M 1298.261719 247.890625 C 1298.261719 247.890625 1298.261719 247.890625 1298.265625 247.894531 C 1298.261719 247.890625 1298.261719 247.890625 1298.261719 247.890625 Z M 1298.8125 248.929688 C 1298.449219 248.761719 1298.222656 248.382812 1298.253906 247.976562 C 1298.25 247.941406 1298.246094 247.890625 1298.246094 247.878906 C 1298.226562 247.199219 1298.171875 246.527344 1298.109375 245.808594 C 1298.042969 245.011719 1297.972656 244.191406 1297.960938 243.355469 C 1297.929688 240.71875 1297.632812 237.96875 1297.035156 234.703125 C 1296.839844 233.601562 1296.605469 232.414062 1296.308594 231.058594 C 1296.300781 231.027344 1296.296875 231 1296.292969 230.96875 C 1296.285156 230.941406 1296.28125 230.910156 1296.277344 230.898438 C 1296.195312 230.367188 1296.558594 229.871094 1297.089844 229.789062 C 1297.621094 229.707031 1298.117188 230.070312 1298.199219 230.601562 C 1298.203125 230.605469 1298.210938 230.644531 1298.21875 230.703125 C 1298.515625 232.058594 1298.753906 233.253906 1298.949219 234.359375 C 1299.566406 237.730469 1299.871094 240.582031 1299.90625 243.332031 C 1299.917969 244.097656 1299.984375 244.886719 1300.046875 245.648438 C 1300.109375 246.359375 1300.171875 247.09375 1300.191406 247.828125 C 1300.195312 247.890625 1300.210938 248.035156 1300.183594 248.207031 C 1300.09375 248.738281 1299.59375 249.09375 1299.066406 249.007812 C 1298.976562 248.992188 1298.890625 248.964844 1298.8125 248.929688 " fill-opacity="1" fill-rule="nonzero"/></g></g></g><g clip-path="url(#id98)"><g clip-path="url(#id99)"><g clip-path="url(#id100)"><path fill="rgb(100%, 8.628845%, 8.628845%)" d="M 1239.613281 315 C 1238.480469 314.472656 1237.15625 314.15625 1235.738281 314.125 C 1231.539062 314.039062 1228.074219 316.503906 1228.011719 319.621094 C 1227.949219 322.738281 1231.316406 325.34375 1235.511719 325.429688 C 1239.710938 325.515625 1243.175781 323.050781 1243.238281 319.933594 C 1243.28125 317.875 1241.820312 316.035156 1239.613281 315 Z M 1230.855469 326.320312 C 1227.949219 324.960938 1226.011719 322.429688 1226.066406 319.582031 C 1226.152344 315.394531 1230.507812 312.074219 1235.777344 312.183594 C 1241.046875 312.292969 1245.265625 315.785156 1245.183594 319.976562 C 1245.101562 324.160156 1240.746094 327.480469 1235.476562 327.371094 C 1233.792969 327.339844 1232.21875 326.957031 1230.855469 326.320312 " fill-opacity="1" fill-rule="nonzero"/></g></g></g><g clip-path="url(#id101)"><g clip-path="url(#id102)"><g clip-path="url(#id103)"><path fill="rgb(100%, 8.628845%, 8.628845%)" d="M 1236.59375 285.574219 C 1233.164062 283.96875 1228.773438 282.945312 1224.046875 282.847656 C 1213.0625 282.621094 1204.03125 287.203125 1203.914062 293.0625 C 1203.800781 298.921875 1212.640625 303.875 1223.625 304.101562 C 1229.042969 304.214844 1234.144531 303.15625 1237.992188 301.121094 C 1241.65625 299.183594 1243.703125 296.617188 1243.757812 293.886719 C 1243.820312 290.648438 1240.996094 287.632812 1236.59375 285.574219 Z M 1210.179688 303.171875 C 1205.078125 300.785156 1201.890625 297.128906 1201.96875 293.023438 C 1202.109375 285.976562 1211.824219 280.652344 1224.082031 280.90625 C 1236.347656 281.15625 1245.839844 286.878906 1245.703125 293.925781 C 1245.632812 297.390625 1243.21875 300.558594 1238.902344 302.839844 C 1234.769531 305.023438 1229.332031 306.164062 1223.585938 306.042969 C 1218.46875 305.941406 1213.835938 304.878906 1210.179688 303.171875 " fill-opacity="1" fill-rule="nonzero"/></g></g></g><g clip-path="url(#id104)"><g clip-path="url(#id105)"><g clip-path="url(#id106)"><path fill="rgb(100%, 8.628845%, 8.628845%)" d="M 1286.359375 351.304688 L 1286.367188 351.308594 Z M 1286.386719 324.0625 C 1284.632812 323.242188 1282.78125 322.980469 1280.976562 323.328125 C 1278.230469 323.851562 1275.898438 325.722656 1274.410156 328.597656 C 1272.882812 331.550781 1272.429688 335.1875 1273.132812 338.835938 C 1274.566406 346.285156 1280.417969 351.453125 1286.175781 350.351562 C 1291.9375 349.25 1295.457031 342.292969 1294.023438 334.84375 C 1293.320312 331.191406 1291.546875 327.980469 1289.035156 325.800781 C 1288.191406 325.074219 1287.304688 324.488281 1286.386719 324.0625 Z M 1279.964844 351.371094 C 1275.761719 349.40625 1272.316406 344.898438 1271.222656 339.203125 C 1270.4375 335.125 1270.957031 331.042969 1272.6875 327.707031 C 1274.453125 324.289062 1277.265625 322.058594 1280.609375 321.417969 C 1283.953125 320.777344 1287.398438 321.8125 1290.308594 324.335938 C 1293.148438 326.796875 1295.148438 330.398438 1295.933594 334.476562 C 1297.566406 342.980469 1293.355469 350.957031 1286.542969 352.261719 C 1284.292969 352.691406 1282.039062 352.339844 1279.964844 351.371094 " fill-opacity="1" fill-rule="nonzero"/></g></g></g><g clip-path="url(#id107)"><g clip-path="url(#id108)"><g clip-path="url(#id109)"><path fill="rgb(100%, 8.628845%, 8.628845%)" d="M 1307.132812 301.625 C 1306.304688 301.234375 1305.429688 301.113281 1304.585938 301.273438 C 1303.289062 301.519531 1302.183594 302.417969 1301.46875 303.792969 C 1300.71875 305.242188 1300.492188 307.042969 1300.84375 308.851562 C 1301.546875 312.503906 1304.367188 315.042969 1307.132812 314.515625 C 1309.898438 313.984375 1311.574219 310.585938 1310.875 306.9375 C 1310.523438 305.125 1309.652344 303.535156 1308.414062 302.464844 C 1308.003906 302.113281 1307.574219 301.832031 1307.132812 301.625 Z M 1307.316406 315.46875 L 1307.320312 315.472656 Z M 1303.773438 315.921875 C 1301.441406 314.828125 1299.539062 312.351562 1298.933594 309.21875 C 1298.503906 306.980469 1298.792969 304.738281 1299.742188 302.898438 C 1300.734375 300.980469 1302.324219 299.726562 1304.21875 299.363281 C 1306.109375 299.003906 1308.054688 299.582031 1309.683594 300.996094 C 1311.253906 302.351562 1312.351562 304.332031 1312.78125 306.570312 C 1313.6875 311.273438 1311.316406 315.691406 1307.5 316.421875 C 1306.222656 316.667969 1304.945312 316.46875 1303.773438 315.921875 " fill-opacity="1" fill-rule="nonzero"/></g></g></g><g clip-path="url(#id110)"><g clip-path="url(#id111)"><g clip-path="url(#id112)"><path fill="rgb(100%, 8.628845%, 8.628845%)" d="M 1272.269531 255.59375 C 1271.28125 255.132812 1270.125 254.855469 1268.882812 254.828125 C 1267.042969 254.789062 1265.304688 255.3125 1264 256.300781 C 1262.761719 257.234375 1262.066406 258.472656 1262.039062 259.792969 C 1262.015625 261.109375 1262.660156 262.375 1263.859375 263.363281 C 1265.125 264.402344 1266.839844 264.992188 1268.683594 265.03125 C 1270.527344 265.070312 1272.265625 264.546875 1273.570312 263.5625 C 1274.808594 262.628906 1275.503906 261.386719 1275.53125 260.070312 C 1275.566406 258.191406 1274.253906 256.523438 1272.269531 255.59375 Z M 1264.488281 266.03125 C 1263.816406 265.714844 1263.1875 265.324219 1262.625 264.863281 C 1260.957031 263.492188 1260.058594 261.675781 1260.097656 259.75 C 1260.132812 257.824219 1261.105469 256.046875 1262.828125 254.75 C 1264.480469 253.5 1266.644531 252.839844 1268.921875 252.886719 C 1273.714844 252.984375 1277.550781 256.226562 1277.472656 260.109375 C 1277.4375 262.035156 1276.464844 263.8125 1274.742188 265.113281 C 1273.085938 266.359375 1270.921875 267.019531 1268.648438 266.972656 C 1267.164062 266.941406 1265.746094 266.617188 1264.488281 266.03125 " fill-opacity="1" fill-rule="nonzero"/></g></g></g></svg>